<?xml version="1.0" standalone="no"?>
<!DOCTYPE svg PUBLIC "-//W3C//DTD SVG 20010904//EN"
 "http://www.w3.org/TR/2001/REC-SVG-20010904/DTD/svg10.dtd">
<svg version="1.0" xmlns="http://www.w3.org/2000/svg"
 width="1211.000000pt" height="409.000000pt" viewBox="0 0 1211.000000 409.000000"
 preserveAspectRatio="xMidYMid meet">

<g transform="translate(0.000000,409.000000) scale(0.100000,-0.100000)"
fill="#000000" stroke="none">
<path d="M2125 3709 c-506 -68 -969 -382 -1228 -834 -89 -155 -165 -378 -198
-580 -15 -94 -15 -371 0 -470 55 -352 203 -658 440 -907 255 -268 572 -438
935 -500 103 -17 151 -19 316 -16 220 5 352 29 530 95 684 254 1118 906 1087
1632 -13 312 -108 601 -288 871 -91 137 -301 345 -442 438 -191 125 -381 205
-602 252 -115 25 -428 36 -550 19z m1035 -1029 l0 -190 -40 0 -40 0 0 150 0
150 -150 0 -150 0 0 33 c0 19 3 37 7 40 3 4 89 7 190 7 l183 0 0 -190z m-1382
-692 l2 -508 335 0 335 0 0 -115 0 -115 -460 0 -460 0 0 625 0 626 123 -3 122
-3 3 -507z"/>
<path d="M4570 2260 l0 -400 295 0 295 0 0 70 0 70 -220 0 -220 0 0 330 0 330
-75 0 -75 0 0 -400z"/>
<path d="M5407 2268 c-92 -216 -167 -397 -167 -401 0 -4 37 -7 82 -5 l81 3 35
83 35 82 184 -2 185 -3 33 -80 33 -80 86 -3 85 -3 -31 73 c-17 40 -93 219
-169 398 l-138 325 -84 3 -84 3 -166 -393z m307 69 c31 -78 56 -146 56 -150 0
-4 -52 -7 -116 -7 -89 0 -115 3 -111 13 43 112 112 287 114 287 1 0 27 -64 57
-143z"/>
<path d="M6190 2260 l0 -400 80 0 80 0 0 124 0 123 101 6 c86 4 110 10 164 36
105 52 154 144 142 270 -6 71 -34 126 -86 174 -61 55 -116 67 -313 67 l-168 0
0 -400z m314 249 c22 -6 52 -24 68 -39 23 -24 28 -37 28 -78 0 -90 -57 -132
-180 -132 l-70 0 0 130 0 130 58 0 c31 0 75 -5 96 -11z"/>
<path d="M6920 2260 l0 -400 80 0 80 0 0 400 0 400 -80 0 -80 0 0 -400z"/>
<path d="M7300 2260 l0 -400 80 0 80 0 2 272 3 272 235 -271 235 -272 73 0 72
-1 0 400 0 400 -80 0 -80 0 -2 -272 -3 -272 -235 272 -235 271 -72 1 -73 0 0
-400z"/>
<path d="M8910 2270 c-91 -215 -166 -395 -168 -400 -2 -6 31 -10 80 -10 l85 0
34 85 34 85 185 -2 184 -3 35 -82 35 -83 83 0 c46 0 83 1 83 3 0 1 -76 180
-168 397 l-168 395 -84 3 -85 2 -165 -390z m312 58 l55 -143 -58 -3 c-33 -2
-85 -2 -118 0 l-58 3 55 143 c31 78 59 142 62 142 3 0 31 -64 62 -142z"/>
<path d="M9730 2260 l0 -400 80 0 80 0 0 262 0 263 118 -118 c64 -64 122 -117
129 -117 6 0 63 55 127 123 l116 122 0 -267 0 -268 80 0 80 0 0 400 0 400 -53
0 -52 0 -150 -150 -150 -150 -150 150 -150 150 -53 0 -52 0 0 -400z"/>
<path d="M10770 2260 l0 -400 75 0 75 0 0 177 0 178 178 -178 177 -177 105 0
105 0 -205 205 -205 205 195 195 195 195 -105 0 -105 0 -160 -160 c-88 -88
-163 -160 -167 -160 -5 0 -8 72 -8 160 l0 160 -75 0 -75 0 0 -400z"/>
<path d="M7880 1330 c0 -167 9 -210 45 -224 9 -3 52 -6 96 -6 78 0 79 0 85 28
11 53 12 53 61 50 46 -3 48 -4 56 -40 9 -38 9 -38 59 -38 36 0 49 4 45 13 -2
6 -26 87 -53 179 l-49 168 -57 0 -56 0 -20 -67 c-11 -38 -33 -110 -48 -160
-25 -83 -44 -118 -44 -79 0 7 -7 19 -15 26 -12 10 -15 41 -15 161 l0 149 -45
0 -45 0 0 -160z m304 -18 l14 -62 -34 0 c-20 0 -33 3 -31 8 3 4 10 33 17 65 6
32 13 57 16 55 2 -2 10 -32 18 -66z"/>
<path d="M7164 1472 c-34 -23 -12 -82 31 -82 28 0 56 35 47 59 -7 21 -22 31
-47 31 -11 0 -25 -4 -31 -8z"/>
<path d="M8862 1468 c-38 -38 12 -93 63 -70 46 21 27 82 -25 82 -14 0 -31 -5
-38 -12z"/>
<path d="M6445 1448 c-2 -7 -23 -76 -45 -153 -22 -77 -45 -152 -50 -167 -9
-28 -9 -28 40 -28 l48 0 7 40 7 41 51 -3 c49 -3 52 -4 58 -36 9 -43 9 -44 61
-40 l45 3 -52 175 -52 175 -57 3 c-39 2 -58 -1 -61 -10z m85 -180 c0 -13 -8
-18 -31 -18 -24 0 -29 4 -25 18 3 9 8 31 11 47 15 70 18 72 31 20 8 -27 14
-58 14 -67z"/>
<path d="M6140 1423 c0 -35 -10 -50 -35 -54 -13 -3 -21 -14 -23 -32 -3 -22 1
-27 17 -27 16 0 21 -6 21 -25 0 -20 -5 -25 -25 -25 -21 0 -25 -5 -25 -30 0
-24 4 -30 21 -30 20 0 21 -4 15 -51 l-7 -50 28 3 c26 3 28 7 31 51 3 43 5 47
29 47 25 0 25 -2 21 -50 -5 -49 -5 -50 23 -50 26 0 29 3 29 34 0 50 9 66 36
66 20 0 24 5 24 30 0 23 -4 30 -20 30 -15 0 -20 7 -20 25 0 20 5 25 25 25 21
0 25 5 25 30 0 24 -4 30 -21 30 -19 0 -21 4 -16 41 5 39 4 40 -21 37 -23 -3
-27 -8 -30 -40 -3 -33 -7 -38 -28 -38 -21 0 -24 4 -24 40 0 36 -2 40 -25 40
-21 0 -25 -5 -25 -27z m86 -129 c-3 -9 -6 -20 -6 -25 0 -5 -11 -9 -25 -9 -14
0 -25 4 -25 9 0 25 15 41 37 41 19 0 24 -4 19 -16z"/>
<path d="M9034 1400 c-5 -30 -11 -40 -25 -40 -15 0 -19 -7 -19 -35 0 -24 5
-35 15 -35 11 0 15 -12 15 -50 0 -66 22 -117 55 -130 29 -11 75 -13 98 -4 24
9 6 57 -24 64 -21 5 -24 12 -27 63 l-3 57 31 0 c28 0 30 3 30 35 0 32 -2 35
-30 35 -28 0 -30 2 -30 40 0 40 0 40 -40 40 -39 0 -40 -1 -46 -40z"/>
<path d="M9846 1400 c-5 -31 -11 -40 -26 -40 -29 0 -29 -65 0 -73 17 -4 20
-14 20 -65 0 -33 3 -68 6 -77 9 -22 57 -45 96 -45 45 0 57 10 51 41 -4 20 -13
28 -34 33 -28 5 -29 8 -29 61 0 54 0 55 30 55 28 0 30 3 30 35 0 32 -2 35 -30
35 -28 0 -30 2 -30 40 0 40 0 40 -39 40 -37 0 -39 -1 -45 -40z"/>
<path d="M6700 1230 l0 -130 45 0 45 0 0 74 c0 66 3 77 22 90 12 9 33 16 45
16 15 0 23 6 23 18 0 9 3 27 6 40 6 19 3 22 -25 22 -21 0 -41 -9 -56 -24 l-25
-25 -6 25 c-5 19 -12 24 -40 24 l-34 0 0 -130z"/>
<path d="M6920 1230 l0 -130 50 0 50 0 0 73 c0 80 15 107 58 107 13 0 23 8 27
23 4 12 9 30 11 40 8 28 -48 22 -85 -9 l-31 -26 0 26 c0 24 -4 26 -40 26 l-40
0 0 -130z"/>
<path d="M7150 1230 l0 -130 45 0 45 0 0 130 0 130 -45 0 -45 0 0 -130z"/>
<path d="M7324 1233 l43 -128 55 -3 55 -3 37 117 c21 64 40 123 43 130 4 11
-6 14 -40 14 l-45 0 -24 -97 -24 -98 -24 98 -24 97 -47 0 -48 0 43 -127z"/>
<path d="M7630 1344 c-44 -19 -43 -17 -29 -48 14 -30 13 -29 57 -17 34 10 62
6 62 -10 0 -5 -6 -9 -12 -9 -30 0 -91 -23 -109 -41 -28 -28 -25 -73 7 -98 32
-25 64 -27 104 -6 27 14 30 14 30 0 0 -11 11 -15 40 -15 l40 0 0 83 c0 126
-35 177 -120 176 -19 0 -51 -7 -70 -15z m86 -159 c-7 -20 -46 -19 -46 0 0 9
10 19 23 24 24 9 33 0 23 -24z"/>
<path d="M8420 1353 c-31 -11 -60 -47 -60 -73 0 -31 21 -53 73 -75 20 -8 37
-20 37 -25 0 -13 -50 -13 -70 0 -10 6 -20 4 -32 -7 -27 -25 -22 -43 19 -60 77
-32 173 5 173 67 0 36 -18 57 -64 73 -55 19 -62 42 -10 34 37 -6 74 11 74 35
0 24 -100 46 -140 31z"/>
<path d="M8643 1340 c-64 -39 -50 -106 28 -132 53 -18 63 -38 19 -38 -17 0
-40 4 -50 10 -14 8 -21 4 -35 -16 -20 -30 -14 -37 47 -55 68 -21 141 8 153 62
8 34 -19 66 -70 83 -58 20 -60 41 -2 33 40 -6 47 -4 61 17 15 23 14 25 -18 40
-46 21 -94 20 -133 -4z"/>
<path d="M8850 1230 l0 -130 50 0 50 0 0 130 0 130 -50 0 -50 0 0 -130z"/>
<path d="M9260 1346 c-39 -14 -47 -32 -26 -59 12 -16 20 -17 51 -8 37 10 65 6
65 -9 0 -5 -17 -11 -38 -15 -21 -3 -53 -15 -70 -25 -26 -16 -32 -26 -32 -54 0
-60 53 -90 119 -66 26 9 36 10 39 1 2 -6 21 -11 43 -11 l39 0 0 63 c-1 86 -14
146 -38 169 -25 26 -103 33 -152 14z m78 -167 c-16 -11 -39 -7 -40 6 0 6 10
16 23 22 20 11 25 10 27 -4 2 -8 -2 -20 -10 -24z"/>
<path d="M9510 1230 l0 -130 45 0 45 0 0 85 c0 83 1 85 26 91 36 9 44 -7 44
-98 l0 -78 45 0 45 0 0 95 c0 108 -15 151 -55 161 -31 8 -74 -3 -97 -23 -14
-13 -17 -12 -23 6 -5 16 -15 21 -41 21 l-34 0 0 -130z"/>
</g>
</svg>
